<?xml version="1.0" standalone="no"?>
<!DOCTYPE svg PUBLIC "-//W3C//DTD SVG 1.1//EN" "http://www.w3.org/Graphics/SVG/1.1/DTD/svg11.dtd">
<svg xmlns="http://www.w3.org/2000/svg" xmlns:xlink="http://www.w3.org/1999/xlink" xmlns:serif="http://www.serif.com/" width="1091" height="421" viewBox="0 0 1091 421" version="1.1" xml:space="preserve" style="fill-rule:evenodd;clip-rule:evenodd;stroke-linejoin:round;stroke-miterlimit:2;">
    <g id="ArtBoard1" transform="matrix(0.696883,0,0,0.561321,9.92015,3.71793)">
        <rect x="-14.235" y="-6.624" width="1564.54" height="748.458" style="fill:none"/>
        
        <g transform="matrix(5.97901,0,0,7.42296,7.28939,5.84705)">
            <path d="M59.38,88.811C58.875,85.489 58.621,82.107 58.098,78.024C54.797,76.995 50.925,74.058 49.174,71.577C49.174,71.577 40.945,66.663 30.999,71.343C30.999,71.343 25.126,69.258 21.755,63.46C23.123,62.833 24.113,61.527 24.318,59.972C33.87,56.874 41.173,48.731 43.227,38.643C43.253,38.653 43.268,38.659 43.295,38.669C43.549,38.785 43.833,38.839 44.119,38.839C44.96,38.839 45.681,38.362 46.032,37.658C46.065,37.592 45.928,37.506 45.729,37.412C41.324,32.744 38.626,26.431 38.626,19.472C38.626,13.701 40.473,8.377 43.61,4.069C42.451,7.033 41.807,10.25 41.807,13.637C41.807,16.523 42.276,19.303 43.141,21.896C43.118,21.464 43.094,21.03 43.094,20.591C43.094,14.824 44.95,9.497 48.08,5.178C46.917,8.143 46.289,11.377 46.289,14.754C46.289,21.431 48.763,27.516 52.842,32.119C56.824,21.339 52.842,32.129 56.829,21.339C61.9,26.481 60.084,33.583 60.135,34.715C60.117,34.726 60.111,34.812 60.127,34.938C60.127,34.948 60.117,34.964 60.117,34.983C60.117,36.179 61.07,37.142 62.251,37.142C62.451,37.142 62.654,37.099 62.847,37.051L62.88,37.051C68.671,42.562 70.139,47.03 71.493,50.53C72.512,60.495 76.818,68.973 80.245,74.326L80.245,16.374C71.909,6.444 59.413,0.127 45.436,0.127C20.343,0.127 0,20.47 0,45.563C0,70.659 20.343,91 45.436,91C50.303,91 54.984,90.227 59.38,88.811Z" style="fill:#167700;fill-rule:nonzero;"/>
        </g>
    </g>
</svg>