<?xml version="1.0" encoding="UTF-8"?>
<svg id="DALL·E_2023-12-19_09.26.40_-_A_minimalistic_logo_design_incorporating_the_provided_black_sketch_featuring_a_university_graduation_cap_positioned_above_the_sketch_and_the_word_E_Bild" data-name="DALL·E 2023-12-19 09.26.40 - A minimalistic logo design incorporating the provided black sketch, featuring a university graduation cap positioned above the sketch, and the word &amp;apos;E Bild" xmlns="http://www.w3.org/2000/svg" version="1.1" viewBox="0 0 1024 1024">
  <defs>
    <style>
      .cls-1 {
        fill: #000;
      }

      .cls-1, .cls-2 {
        stroke-width: 0px;
      }

      .cls-2 {
        fill: #fff;
      }
    </style>
  </defs>
  <path class="cls-2" d="M1024,1024H0V0c341.3,0,682.7,0,1024,0v1024ZM339.4,649.9c.4-.5.8-1,1.2-1.6,2.9.9,5.8,1.7,8.7,2.7,5.7,2.1,12,3.3,16.8,6.7,5.3,3.8,9.4,9.6,13.7,14.7,9.1,10.9,18,21.9,27,32.8,1.3,1.6,2.4,3.5,3.9,5.1,5.3,5.7,10.6,11.3,16.4,17.4,1.2-2,1.9-3,2.5-4.1,2-3.6,3.6-7.4,6-10.7,6.2-8.6,6.3-8.5,15.4-3.1,3.6,2.2,4.1,5.1,2.4,8.8-3.7,7.9-7.3,15.7-10.7,23.7-.6,1.4-.4,3.9.5,5.2,8.4,11.4,17,22.6,25.7,33.8,6.7,8.6,13.5,17.1,20.3,25.6,8.1,10.1,16.2,20.1,24.4,30.2,6.5,7.9,13.1,15.8,19.5,23.7,7.9,9.8,15.6,19.7,23.7,29.4,7.9,9.6,16.1,18.9,24.1,28.4,9.4,11.2,18.8,22.3,28,33.7,3.4,4.2,6.4,4.9,11.3,2.1,46.3-26.7,92.7-53.1,139.1-79.7,1.8-1,3.3-2.8,4.3-4.6,8.3-15.3,16.5-30.7,24.7-46.2,13.4-25.4,26.8-50.7,39.9-76.2,7.8-15.1,14.9-30.4,22.5-45.6,3.3-6.7,2.9-12.6-2.1-18.2-.9-1-1.6-2.1-2.3-3.2-8.7-13-17.3-26.1-26-39.1-7.8-11.5-15.8-22.8-23.6-34.3-10.9-16-21.6-32-32.5-48-6.8-10-13.5-19.9-20.3-29.9-6-8.9-12-17.8-18.1-26.6-8.5-12.2-17.1-24.3-25.5-36.5-4.9-7.1-9.5-14.3-14.4-21.3-7.2-10.4-14.6-20.8-21.8-31.2-6.5-9.3-12.9-18.7-19.6-28-3.5-4.9-4.7-4.7-8.6,0-2,2.4-4.1,4.9-6.6,7.8v-56.9c7.1,6.4,8.9,6.4,12.4.1,8.8-15.8,17.7-31.6,26.6-47.4.4-.8,1.2-1.7,2.1-1.9,6.1-1.9,12.2-3.6,18.3-5.3l1,1.4c-3.4,6.9-6.7,13.9-10.3,20.7-9.3,17.4-18.6,34.8-28.1,52.1-1.6,3-2.1,5.9-.2,8.8,8.9,13.1,17.9,26.1,27,39.1,8.6,12.3,17.4,24.5,26,36.8,9.6,13.8,18.9,27.8,28.4,41.7,6.7,9.8,13.4,19.6,20.1,29.5,5.9,8.7,11.8,17.5,17.8,26.2,8.7,12.6,17.5,25.2,26.2,37.8,4.9,7.1,9.6,14.2,14.6,21.2,7.6,10.6,15.3,21.1,23,31.6,10.1,13.9,20.2,27.7,30.3,41.6,2.2,3.1,4.2,2.9,6.1-.2,2.5-3.9,5-7.7,7.3-11.8,10-17.9,20-35.9,30-53.9,12.2-22.1,24.3-44.2,36.3-66.3,1.5-2.8,2.4-6.2,2.4-9.4.1-87,0-174,.2-261,0-3.6-1-5.7-4.2-7.5-57.8-33.8-115.5-67.6-173.1-101.7-4.3-2.6-7.2-1.8-9.8,1.7-4,5.5-8.1,11-11.4,16.9-12.2,21.6-24.2,43.3-36.3,64.9-.8,1.5-2.9,3.5-4,3.3-4.2-1-8.2-2.9-12-4.3,15-29.8,29.8-58.7,44.2-87.7,5.4-11,5.1-8.8-4.3-14.2-50.3-29.4-100.7-58.6-151-88-9-5.3-17.7-11.1-26.8-16.8-3.3,7.4-6.2,14.2-9.3,21-12.3,27.1-25.1,53.9-36.9,81.3-7.1,16.6-6.8,11.3,2,26.7,2.2,3.9,4.7,7.7,7,11.5-.2.4-.5.8-.7,1.3-6-4.3-11.6-1.9-16.8.5-1.8-2.3-3.3-4.2-5.5-7.1-4.4,14.3-16.1,15.2-28,18.6,5.6-11.7,10.7-22.1,16.1-33.3,2.8,1.8,5.1,3.3,7.5,4.7,3.3,2,5.8,1,6.9-2.6,1.8-6-2.5-13.7-8.4-15.7-.8,3.5-1.7,7-2.5,10.6-.6.1-1.3.2-1.9.4-4.9-6.4-10-12.7-14.7-19.2-15.7-21.7-31.3-43.5-46.7-65.5-2.9-4-5.5-4.3-9.6-1.9-8.1,4.7-16.4,8.8-24.5,13.5-103.4,59.6-206.7,119.3-310.1,178.9-2.6,1.5-3.7,3.3-3.5,6.3.5,12.8.7,25.6,1.3,38.4.1,3,.8,6.6,2.6,8.8,23.6,28.6,47.4,57,71.2,85.4,7.4,8.8,14.9,17.6,22.3,26.5,3.5,4.2,7.1,8.3,10.5,12.5,7.3,9.1,14.4,18.4,21.7,27.5,6,7.4,12.1,14.7,18.3,22,10.6,12.7,21,25.4,31.7,37.9,6.2,7.3,12.8,14.3,19.2,21.4.6.6,1,1.3,1.6,1.9,4,4.8,8,9.5,12.2,14.5,1.4-1.4,2.3-2,2.7-2.9,6.8-13.6,13.5-27.2,20.4-40.7,1-2,3-3.6,4.9-5,3.4-2.4,6-4.7,6-9.5,0-19,.3-38,.7-57,0-3.7,1.2-7.3,1.9-10.9,1.1,3.6,1.9,7,2,10.4.4,23.6.8,47.2.9,70.9,0,4.2-.2,8.9-1.9,12.7-7.3,16-15.3,31.7-23,47.5-1.3,2.6-1.4,4.5.8,7,4.9,5.5,9.3,11.5,14.3,17.9-5.1.9-9.2,1.4-13.2,2.5-3.4.9-5.5,0-7.7-2.7-3-3.8-4.5-3.5-7,.7-1.3,2.3-1.8,5.8-3.8,6.8-6,3.2-12.5,5.5-18.9,8.2-.4-.4-.8-.8-1.2-1.2,4.8-9.9,9.6-19.9,14.7-29.7.5-.9,2.9-1.5,4.2-1.2,1.7.4,3.1,1.9,4.8,2.6,1.4.6,3.7,1.5,4.3,1,1.3-1.1,2.8-3.6,2.4-4.9-1.2-3.8-3.4-7.4-5.2-11.3-7.2,6.3-12.8,4.7-17.2-.6-8.5-10.1-17.4-19.8-26-29.8-7-8.1-13.8-16.4-20.6-24.6-9.3-11.3-18.6-22.7-27.9-33.9-8.1-9.8-16.5-19.4-24.7-29-3.6-4.3-7.3-8.5-10.8-12.8-4.4-5.5-8.5-11.3-12.9-16.8-4.2-5.1-8.6-10-12.9-15-3.6-4.3-7.3-8.5-10.6-13-4.3-5.9-8.1-12.3-12.5-18.1-7.4-9.7-15.1-19.1-22.7-28.6-5.1-6.4-10.4-12.7-16.5-20.3-.2,3.2-.3,4.8-.3,6.4,0,142,0,284,0,426,0,3.5,1.2,5.4,4.1,7,17.7,9.9,35.3,20.1,53,30,11.3,6.3,22.9,12.2,34.4,18.3,2.4,1.3,4.3,2,5.7-1.7,2.7-7.5,5.9-14.9,9.1-22.2,3.7-8.5,7.6-16.9,11.5-25.4,8.8-18.9,17.7-37.8,26.5-56.7,4.5-9.8,8.9-19.6,13.5-29.3,6.2-13.1,12.5-26.2,18.9-39.2,4-8.1,9.4-10.3,18.2-8.3,2.5.6,3.9,1.9,3,4.6-1.2,3.4-2.4,6.8-3.9,10-4.6,10.1-9.3,20.1-14.1,30.1-6.4,13.4-12.8,26.7-19.3,40.1-9.2,19.1-18.6,38.1-27.7,57.2-4.4,9.3-8.3,18.8-12.7,28.1-2.7,5.7-5.2,11.8-9.2,16.6-2.6,3.1-2.1,4.5,0,6.4,3.4,3,6.8,5.9,10.6,8.2,20.7,12.5,41.4,24.9,62.2,37,20.3,11.8,40.8,23.2,61.1,34.9,3.1,1.8,5.3,1.5,7.2-1.2,3.2-4.8,6.6-9.5,9.4-14.6,12.1-21.9,24.1-43.8,36-65.8,12.4-22.9,24.6-45.8,36.7-68.9,4.9-9.5,6.1-11.9,16.1-3.6.2.2.6,0,.9.1,4.3-4.4,4.9-8.1,1.9-11.6-4.3-5.2-6,.2-8.5,2-2.6,2-6.6,1.2-8.6-1.4-6.9-9-13.9-18-21-26.8-4-5-8.4-9.7-12.6-14.7-3.5-4.1-7-8.3-10.4-12.6-8-9.9-15.9-19.7-23.8-29.6-2.5-3.1-4.6-6.5-6.9-9.8ZM341.7,920c2.7,1.7,4.7,3.1,6.8,4.3,49.9,28.7,100,57.1,149.7,86.1,7.9,4.6,14.6,5.1,22.3.9,22-12.1,44-24.2,66-36.3,4-2.2,7.9-4.7,11.8-7-.5-1.1-.6-1.6-.9-2-13.5-17-27-33.9-40.7-50.8-7-8.6-14.3-17-21.4-25.6-11.9-14.5-23.7-29-35.5-43.5-4-4.9-7.8-9.9-11.7-14.8-7.3-9-14.6-18-22-26.9-8.3-10-16.8-19.9-25.2-29.9-3-3.5-6.1-6.9-9.8-11-33.2,51.1-57.9,105.3-89.3,156.4ZM876.6,694.7c10.8,15.8,20.9,30.7,31.2,45.5,6.2,9,12.4,18,19.3,26.5,2.4,2.9,6.9,6.2,10.1,5.8,4.8-.5,5.3-6.4,5.7-10.6,1.3-13.2,2.9-26.5,2.8-39.7-.1-49.4-.8-98.9-1.4-148.3,0-1-.3-1.9-.5-3-22.6,41.6-45,82.9-67.2,123.8ZM787.1,856.8c.5.4.9.8,1.4,1.3,5.6-3.4,11.2-6.8,16.9-10.1,35.2-20.5,70.5-40.9,105.7-61.4q8.4-4.9,2.4-12.8c-.2-.3-.4-.5-.6-.8-11.1-15.4-22.2-30.9-33.5-46.3-3.6-5-7.6-9.7-11.8-15-27.2,49-53.9,97-80.5,145.1ZM490.7,134.6c2.9-4.3,5.2-6.9,6.7-10,15.2-30.8,30.3-61.8,45.4-92.6,1.5-3,.5-4.5-2.1-5.9-7-3.8-14-7.7-20.8-11.9-5.7-3.6-10.8-3.3-16.6.1-20.7,12-41.7,23.6-62.5,35.4-1.4.8-2.6,1.8-4.7,3.3,18.1,27.1,36,53.7,54.7,81.6ZM867.6,703.7c3.2-3.7,4.8-7.8,3.2-12.4-.6-1.6-2.6-2.7-3.9-4.1-1.4,1.5-3.6,2.9-4,4.6-.9,4.5-.7,9.1,4.7,11.9Z"/>
  <path class="cls-1" d="M339.4,649.9c2.3,3.3,4.4,6.7,6.9,9.8,7.9,9.9,15.8,19.8,23.8,29.6,3.4,4.2,6.9,8.4,10.4,12.6,4.2,4.9,8.5,9.6,12.6,14.7,7.1,8.8,14.1,17.8,21,26.8,2,2.6,6,3.4,8.6,1.4,2.5-1.9,4.3-7.2,8.5-2,2.9,3.5,2.4,7.2-1.9,11.6-.3,0-.7,0-.9-.1-10-8.3-11.2-5.9-16.1,3.6-12.1,23.1-24.3,46-36.7,68.9-11.9,22-23.9,43.9-36,65.8-2.8,5.1-6.2,9.8-9.4,14.6-1.9,2.8-4.1,3-7.2,1.2-20.3-11.7-40.8-23.1-61.1-34.9-20.9-12.1-41.6-24.5-62.2-37-3.8-2.3-7.3-5.3-10.6-8.2-2.1-1.9-2.7-3.3,0-6.4,4-4.7,6.5-10.9,9.2-16.6,4.4-9.3,8.3-18.8,12.7-28.1,9.1-19.1,18.5-38.2,27.7-57.2,6.5-13.4,12.9-26.7,19.3-40.1,4.8-10,9.5-20,14.1-30.1,1.5-3.3,2.7-6.6,3.9-10,.9-2.7-.5-4-3-4.6-8.9-2-14.2.3-18.2,8.3-6.5,13-12.7,26.1-18.9,39.2-4.6,9.7-9,19.5-13.5,29.3-8.8,18.9-17.7,37.8-26.5,56.7-3.9,8.4-7.8,16.9-11.5,25.4-3.2,7.3-6.3,14.7-9.1,22.2-1.4,3.7-3.3,3-5.7,1.7-11.5-6.1-23-12-34.4-18.3-17.7-9.9-35.3-20.1-53-30-3-1.7-4.1-3.5-4.1-7,0-142,0-284,0-426,0-1.6.2-3.2.3-6.4,6.1,7.5,11.4,13.9,16.5,20.3,7.6,9.5,15.3,18.9,22.7,28.6,4.4,5.8,8.2,12.2,12.5,18.1,3.3,4.5,7,8.7,10.6,13,4.3,5,8.8,9.9,12.9,15,4.4,5.5,8.5,11.3,12.9,16.8,3.5,4.4,7.2,8.6,10.8,12.8,8.2,9.7,16.5,19.3,24.7,29,9.4,11.2,18.6,22.6,27.9,33.9,6.8,8.2,13.6,16.5,20.6,24.6,8.6,10,17.5,19.8,26,29.8,4.4,5.3,10,6.9,17.2.6,1.9,3.9,4,7.5,5.2,11.3.4,1.3-1.1,3.8-2.4,4.9-.7.6-2.9-.4-4.3-1-1.7-.7-3.1-2.2-4.8-2.6-1.3-.3-3.7.3-4.2,1.2-5.1,9.8-9.8,19.8-14.7,29.7.4.4.8.8,1.2,1.2,6.3-2.7,12.8-5,18.9-8.2,1.9-1,2.4-4.5,3.8-6.8,2.5-4.2,4-4.5,7-.7,2.1,2.8,4.3,3.6,7.7,2.7,4-1,8.1-1.5,13.2-2.5-5.1-6.4-9.4-12.4-14.3-17.9-2.2-2.5-2.1-4.5-.8-7,7.8-15.8,15.7-31.5,23-47.5,1.7-3.7,1.9-8.4,1.9-12.7-.1-23.6-.5-47.2-.9-70.9,0-3.4-.9-6.8-2-10.4-.7,3.6-1.8,7.3-1.9,10.9-.4,19-.7,38-.7,57,0,4.8-2.7,7.1-6,9.5-1.9,1.3-3.9,3-4.9,5-6.9,13.5-13.6,27.1-20.4,40.7-.4.8-1.3,1.4-2.7,2.9-4.2-5-8.2-9.8-12.2-14.5-.5-.6-1-1.3-1.6-1.9-6.4-7.1-13-14.1-19.2-21.4-10.7-12.5-21.2-25.2-31.7-37.9-6.1-7.3-12.3-14.6-18.3-22-7.3-9.1-14.4-18.4-21.7-27.5-3.4-4.3-7-8.4-10.5-12.5-7.4-8.8-14.9-17.6-22.3-26.5-23.8-28.4-47.6-56.8-71.2-85.4-1.8-2.2-2.4-5.8-2.6-8.8-.6-12.8-.8-25.6-1.3-38.4-.1-3.1.9-4.8,3.5-6.3,103.4-59.6,206.7-119.3,310.1-178.9,8.1-4.7,16.4-8.8,24.5-13.5,4-2.3,6.7-2.1,9.6,1.9,15.4,21.9,31,43.7,46.7,65.5,4.7,6.6,9.8,12.8,14.7,19.2.6-.1,1.3-.2,1.9-.4.8-3.5,1.7-7,2.5-10.6,5.9,1.9,10.1,9.7,8.4,15.7-1.1,3.6-3.6,4.6-6.9,2.6-2.3-1.4-4.6-2.9-7.5-4.7-5.4,11.2-10.5,21.6-16.1,33.3,11.8-3.4,23.6-4.3,28-18.6,2.2,2.9,3.7,4.8,5.5,7.1,5.3-2.4,10.9-4.8,16.8-.5.2-.4.5-.8.7-1.3-2.4-3.8-4.8-7.6-7-11.5-8.8-15.4-9.1-10.2-2-26.7,11.8-27.3,24.6-54.2,36.9-81.3,3.1-6.8,6.1-13.6,9.3-21,9.1,5.7,17.8,11.5,26.8,16.8,50.3,29.4,100.7,58.6,151,88,9.3,5.4,9.7,3.2,4.3,14.2-14.3,29.1-29.1,57.9-44.2,87.7,3.7,1.4,7.8,3.2,12,4.3,1,.3,3.1-1.8,4-3.3,12.2-21.6,24.1-43.3,36.3-64.9,3.4-5.9,7.4-11.4,11.4-16.9,2.5-3.5,5.4-4.3,9.8-1.7,57.6,34,115.3,67.9,173.1,101.7,3.2,1.9,4.2,4,4.2,7.5,0,87,0,174-.2,261,0,3.2-.9,6.6-2.4,9.4-12,22.2-24.1,44.3-36.3,66.3-9.9,18-19.9,36-30,53.9-2.2,4-4.8,7.9-7.3,11.8-1.9,3-3.8,3.3-6.1.2-10.1-13.9-20.2-27.7-30.3-41.6-7.7-10.5-15.4-21-23-31.6-5-7-9.7-14.2-14.6-21.2-8.7-12.6-17.5-25.2-26.2-37.8-6-8.7-11.8-17.5-17.8-26.2-6.7-9.8-13.4-19.6-20.1-29.5-9.5-13.9-18.8-27.9-28.4-41.7-8.5-12.4-17.4-24.5-26-36.8-9.1-13-18-26.1-27-39.1-1.9-2.9-1.4-5.7.2-8.8,9.4-17.3,18.8-34.7,28.1-52.1,3.6-6.8,6.9-13.8,10.3-20.7l-1-1.4c-6.1,1.8-12.2,3.5-18.3,5.3-.8.2-1.6,1.1-2.1,1.9-8.9,15.8-17.7,31.6-26.6,47.4-3.5,6.3-5.3,6.3-12.4-.1v56.9c2.5-3,4.5-5.4,6.6-7.8,3.9-4.7,5.1-4.9,8.6,0,6.7,9.2,13.1,18.6,19.6,28,7.3,10.4,14.6,20.8,21.8,31.2,4.9,7.1,9.5,14.3,14.4,21.3,8.5,12.2,17.1,24.3,25.5,36.5,6.1,8.8,12.1,17.7,18.1,26.6,6.8,10,13.6,19.9,20.3,29.9,10.8,16,21.6,32,32.5,48,7.8,11.5,15.8,22.8,23.6,34.3,8.8,13,17.4,26.1,26,39.1.7,1.1,1.4,2.2,2.3,3.2,5,5.6,5.5,11.6,2.1,18.2-7.6,15.2-14.8,30.5-22.5,45.6-13.1,25.5-26.5,50.8-39.9,76.2-8.1,15.4-16.3,30.8-24.7,46.2-1,1.8-2.6,3.6-4.3,4.6-46.3,26.6-92.8,53-139.1,79.7-4.9,2.8-8,2.1-11.3-2.1-9.2-11.3-18.6-22.5-28-33.7-8-9.5-16.2-18.8-24.1-28.4-8-9.7-15.7-19.7-23.7-29.4-6.5-8-13.1-15.8-19.5-23.7-8.2-10-16.3-20.1-24.4-30.2-6.8-8.5-13.6-17-20.3-25.6-8.7-11.2-17.3-22.4-25.7-33.8-.9-1.2-1.1-3.7-.5-5.2,3.4-8,7-15.9,10.7-23.7,1.7-3.7,1.3-6.6-2.4-8.8-9-5.3-9.2-5.4-15.4,3.1-2.4,3.3-4,7.1-6,10.7-.6,1.1-1.3,2.2-2.5,4.1-5.8-6.1-11.1-11.7-16.4-17.4-1.4-1.5-2.5-3.4-3.9-5.1-9-11-17.9-22-27-32.8-4.3-5.1-8.4-10.9-13.7-14.7-4.7-3.4-11.1-4.6-16.8-6.7-2.8-1-5.8-1.8-8.7-2.7-.4.5-.8,1-1.2,1.6ZM658.3,597.4c0,.7.1,1.3.2,2-25.8,9.5-49.2,23.3-70.9,39.9-21.8,16.7-39.6,37.2-55.4,59.5,1.6-.5,2.7-1.5,3.7-2.5,31-32.5,64.9-61,106-80.3,22.3-10.5,45.4-17.3,70-12.6,13.2,2.5,26.4,7.2,38.7,12.9,13.4,6.2,25.7,14.6,38.4,22.3,1.3.8,1.6,3.1,2.4,4.7-1.8,0-3.7.5-5.3,0-4.6-1.3-9.1-3.2-13.8-4.4-23.2-6-46-2.5-68.5,3.7-23.8,6.5-46.5,16.2-68.2,27.9-44.2,23.8-82.8,54.4-113.6,94.4-2.9,3.7-6,7.3-9.4,11.6-14.7-18.4-29.4-35.7-47.1-51.5-2.7,6.5-5.3,12.2-7.2,18.2-.6,1.8-.1,4.7,1,6.3,3.8,5.6,8,11.1,12.3,16.3,33.1,40.5,66.2,81,99.4,121.4,12.7,15.4,25.5,30.7,38.8,45.7,6.5,7.3,7.2,7.3,15.6,2.5,34.7-19.8,69.2-39.7,103.7-59.7,15.2-8.8,26.8-21.1,35.2-36.6,25.4-46.9,50.9-93.8,76.5-140.6,1.6-3,.7-4.8-.9-7.1-55.9-81.1-111.6-162.4-167.6-243.4-8.6-12.4-18.2-24.2-27.4-36.2-2.6-3.5-5.2-3.6-8,0-1.4,1.8-2.9,3.4-4.2,5-2.6-2.1-5-3.9-7.2-5.9-.6-.5-1.1-1.4-1.3-2.3-2.9-9.8-7.7-18.4-16.2-24.3-15.3-10.5-32.5-10.6-49.9-7.8-15.2,2.5-29.4,8.2-42.6,16.2-1.5.9-4.3,1.2-5.6.4-21.6-14-45-20.6-70.6-17.2-15.6,2.1-29.1,8.5-35.4,24.6-.7,1.8-2.2,3.3-3.4,4.8-1.3,1.6-3.2,2.8-4,4.6-12.2,26.5-24.2,53.2-36.6,79.7-2.4,5-3.6,9.8-3,15.3.3,2.8.5,5.7,0,8.5-.5,2.7-1.2,6-3,7.6-1.1.9-4.6-1.1-7.7-2-7.5,15.6-15.5,32.1-23.3,48.7-2.4,5.1-1.6,10,1.6,14.6,3.7,5.4,7.5,10.6,10.8,16.2,1.8,3.1,4.3,3.8,7.4,4.6,10.9,3,22,5.4,32.4,9.6,40.5,16.5,73.3,44.1,104.5,74,2.2,2.1,4.2,4.3,6.3,6.4,2,1.9,4,3.8,6.1,5.7.3-.3.5-.7.8-1-33.4-44.2-74.3-79-128.6-98.6,2.7-1,3.7-1.9,4.7-1.7,5.8.7,11.6,1.2,17.2,2.6,16.3,4.1,30.8,12.4,45,21.1,2.5,1.6,5.2,3,7.7,4.5,2.3,1.4,4.6,2.9,7,4.4-18.6-17.3-40.3-28.8-64.3-36.1,30.3,5.7,54.4,23.4,78.7,40.9-15.2-17.6-43.2-35.7-64.9-42.3-14.4-4.4-28.5-5.7-42.6,1.7-3.3,1.8-8.4.3-13.2.3.7-1.6.8-2.1,1-2.5.4-.5.8-1.1,1.3-1.5,20.3-13.7,42.3-19.2,66.4-13.4,16.6,4,30.8,13,44.7,22.5,8.7,5.9,17.2,12.1,25.8,18.1.3-.3.5-.7.8-1-9.3-7.7-18.6-15.5-27.9-23.2,1.2,0,2.3.3,3.2.9,19.6,12.8,37.7,27.4,53.8,44.4,1.6,1.7,3.7,3,5.4,4.4,31.2-31.5,46.8-44.7,56.6-47.7-11.7,8.7-22.8,17.2-31,28.9,3.5-2.3,6.7-4.9,9.9-7.5,15-12.4,30.5-24,48.2-32.5,23.2-11.1,46.6-12.4,70.4-2.2,6.1,2.6,12.4,5.2,17.5,11.5-5.2,1.1-9.3,2.5-13.8.3-9.7-4.7-19.8-5.9-30.6-4.1-16.3,2.6-30.6,9.8-44.6,18-13.9,8.1-25.4,18.9-35.4,29.1,12-8.2,24.8-17.8,38.5-26.2,18.3-11.3,36.9-17.4,44.8-16.1-35.2,8.4-67.5,32.3-75.5,43.1,8.8-5.8,18.5-12.8,28.7-19,15.3-9.2,31.1-17.4,49-20.5,3.9-.7,8-.6,12-.8ZM752.9,262.7c0,.7-.2,1.3-.3,2-1.8.7-3.6,1.5-5.4,2-11.7,3.2-23.4,6.4-35.2,9.4-3.4.9-5.7,2.3-7.4,5.7-4.4,8.8-9.5,17.2-13.9,25.9-7.2,14.2-14.2,28.5-21.2,42.8-3,6.1-2.8,12.2.6,18.1,3.6,6.3,7,12.9,11.1,18.9,47.2,68.9,94.5,137.8,141.8,206.6,11.7,17,23.8,33.7,35.8,50.5,3.2,4.4,5.2,4.5,8.7.4,3.3-3.9,6.5-8.1,9-12.5,17.2-30.2,34.3-60.4,51.3-90.7,1-1.8,1.2-4.1,1.2-6.2.4-32.7,1-65.3,1-98,0-50.6-.6-101.3-1-151.9-.1-11.9-4-20.3-16-27-39.8-22.1-78.7-45.9-117.9-69.1-6.2-3.6-12.3-7.3-18.5-10.8-8.4-4.7-9.6-4.9-14.5,3-14,22.6-27.3,45.5-41.4,69,11.6,4.3,21.9,8.1,32.2,11.8ZM272.7,264.9c0-.5-.2-1-.3-1.5,2.2-1.1,4.3-2.5,6.6-3.2,14.3-4.8,28.8-9.4,43.1-14.3,2.5-.9,5.7-2.2,6.9-4.3,8.7-15.2,22.4-18.6,38.5-17.2,2.5.2,5.3,0,7.7-.7,24.4-8.8,48.8-17.7,73.1-26.8,1.9-.7,3.8-2.7,4.7-4.5,3.9-7.7,6.8-16,11.1-23.4,5.3-9.1,4.3-17.4-1.2-25.7-10.5-15.6-21-31.2-31.7-46.7-2.7-4-6-7.5-9.2-11.2-3.2-3.8-6.6-4.1-11-1.6-20,11.6-40.2,22.9-60.2,34.5-64.2,37.3-128.3,74.7-192.5,112.1-16.5,9.6-33.4,18.7-49.7,28.8-14.6,9-18.6,20.5-15,37.3,2.3,10.9,8.9,19.3,15.6,27.5,43.2,53.1,86.6,106.1,130,159,13.6,16.6,27.5,33.1,41.5,49.3,5,5.8,6.3,5.6,10.1-1,6.9-12,13-24.4,19.9-36.3,4.5-7.7,5.5-15.6,5.6-24.3,0-23.6.9-47.3,6-70.5.9-4,.6-7.1-1.6-10.7-7.2-12-2.1-24,7.9-27.5,1.4-.5,2.6-2.7,3-4.4.9-3.6-.5-6.2-3.8-8.2-8.5-5.2-10.6-16.8-1.3-23.8,1.7-1.3,3.2-4.1,3.3-6.2.4-12,.4-24,.2-36,0-1.4-1.8-3.6-3.2-4-16.4-4.3-32.8-8.2-49.3-12.4-1.7-.4-3.2-1.3-4.8-2ZM234.8,642.8c-.2-.4-.4-.8-.6-1.3,2.2-1.6,4.3-3.3,6.5-4.9,4-2.9,8.2-5.3,10.2-10.5,4.5-12,9.6-23.7,14.6-35.5,2.7-6.3,1.8-12-2.4-17.1-7.3-8.9-14.9-17.6-22.3-26.4-7.6-9.1-15.3-18.1-22.9-27.2-3-3.5-5.8-7.2-8.7-10.7-9.3-11.3-18.6-22.5-28-33.7-4.7-5.6-9.6-10.9-14.1-16.6-7.2-8.9-14.1-18.1-21.4-27-5.1-6.3-10.6-12.2-15.9-18.3-3.5-4.1-7-8.3-10.5-12.5-5.7-7-11.4-14-17.3-20.8-1-1.2-3.3-2.1-4.9-1.9-2.8.3-3.9,2.4-4,5.3-.6,17.4-2.1,34.7-1.9,52.1.7,67.2-2.2,134.5,1.6,201.7.7,11.6.2,23.3.3,35,0,27.3,0,54.6,0,82,0,3.5.9,6.2,3.9,8,4.1,2.3,8.2,4.6,12.3,6.9,15.6,8.8,31.1,17.8,46.7,26.5,4.4,2.4,11,1.6,14.1-2.3,3.5-4.6,6.7-9.6,9.2-14.8,9-18.7,17.6-37.6,26.5-56.4,4.2-8.8,8.8-17.4,12.9-26.2,6.2-13.2,12.1-26.6,18-39.9,1.8-4,3.4-8.1,5.4-12.9-3.4-.3-5.4-.4-7.3-.5ZM402.2,751.4c-.3-.2-.5-.5-.8-.7-.7-2.5-1.1-5.1-2.2-7.4-7.7-14.7-19.3-26.4-29.5-39.3-6-7.6-12.2-15-18.5-22.4-8.1-9.6-16.3-19-24.4-28.6-.8-1-1.5-2.1-2.3-3.2-4.1-5.3-7.4-11.7-15.8-10.9-.6,0-1.3-.3-1.9-.4-5.5-.5-11.1-1.1-16.6-1.3-.9,0-2.2,1.3-2.7,2.3-2.5,5.3-4.7,10.7-7.2,16-6.1,12.9-12.4,25.7-18.5,38.6-5.2,11-10.3,22-15.3,33.1-5.4,12-10.6,24-16,36-7.3,16.1-14.8,32.1-22.1,48.2-3.5,7.8-.9,16.4,6.2,20.7,8.6,5.3,17.1,10.8,25.8,15.9,16.4,9.4,32.9,18.6,49.3,27.8,7.2,4,14.5,8.1,21.8,11.8,5.8,3,13.3,2,17.2-2.9,5-6.4,9.6-13.2,13.6-20.2,9.6-17,18.6-34.3,27.9-51.4,7.8-14.3,15.7-28.5,23.3-42.8,3.2-6.1,5.8-12.6,8.6-18.8ZM521.7,149.3c.6,1.5,1,3.1,1.8,4.5,5,8.5,10.3,16.8,15.1,25.3,2,3.6,4.9,5.5,8.6,6.9,25.4,9.4,50.8,18.9,76.2,28.3,18.7,7,37.4,13.9,56.1,20.9,2.7,1,4.2.7,5.6-2,13.2-25.4,26.5-50.7,39.9-76,1.4-2.6.9-4.2-1.4-5.8-7.6-5.4-14.8-11.3-22.7-16.2-13.9-8.5-28.1-16.5-42.2-24.6-27-15.6-53.9-31.2-80.9-46.6-11.8-6.7-13.6-6.7-19.5,5.4-12.2,24.7-23.5,49.9-35.1,75-.7,1.5-.9,3.2-1.4,5ZM500.1,319.5c0-.2,0-.5,0-.7h-34.2c0-.4,0-.7-.1-1.1,9.3-1.3,18.5-2.5,27.8-3.8,0-.2,0-.5,0-.7h-15.1c0-.3,0-.7-.1-1l24.8-3.5c0-.3,0-.6,0-.9h-39.9c0-.3,0-.7,0-1,7-1,14-2.1,22.1-3.3h-28.1c0-.4-.2-.8-.3-1.2,14.6-3,29.3-5.9,43.9-8.9v-.7c-15,.6-30,1.2-45,1.9,0-.1,0-.2-.1-.3,6.9-1.7,13.8-3.4,20.7-5.1,0-.6-.2-1.1-.2-1.7-6.7.7-13.3,1.5-20,2.2,0-.5-.2-.9-.3-1.4,11.4-2.6,22.7-5.2,34.1-7.8,0-.4,0-.7-.1-1.1-13,1.1-26,2.2-39,3.3,0-.4-.2-.9-.2-1.3,14.7-3.2,29.5-6.4,44.2-9.6-8.2.2-16.5.2-24.7,1.3-8,1-15.9,3-23.9,4.6-.1-.4-.2-.8-.3-1.2,9-2.8,18-5.7,27.1-8.5-16.6-.9-51.7,7.6-55.1,16.3,5.4-1.7,10.9-3.5,16.4-5.2.1.4.3.7.4,1.1-5.4,2.7-10.8,5.5-16.2,8.2.2.3.3.7.5,1l14.8-4.1c.1.5.3,1,.4,1.5-2.6,1-5.3,1.9-7.7,3.2-2.4,1.3-4.6,3-6.9,4.5l.4.6c4.4-1.3,8.8-2.7,13.3-4,0,.3.2.5.3.8l-14.4,9c.2.4.5.9.7,1.3,2.5-1.2,4.9-2.5,7.5-3.4,2.4-.9,5-1.3,8.5-2.1-5.7,3.7-10.5,6.8-15.2,9.9.2.3.4.5.6.8,4.1-1.6,8.2-3.1,12.3-4.7.1.3.3.6.4.9-4.6,2.9-9.2,5.9-13.8,8.8.2.3.4.6.6.8l14-5.6c.2.3.3.7.5,1-4.6,2.8-9.1,5.7-13.7,8.5.1.2.3.5.4.7,4-1.3,8-2.5,12.1-3.8.1.3.2.5.3.8-4.4,2.8-8.9,5.5-13.3,8.3.2.3.3.6.5.9,3.9-1.4,7.9-2.9,11.8-4.3l.6,1.2c-4.4,2.8-8.8,5.6-13.2,8.3.1.2.3.4.4.7,4.4-1.3,8.7-2.6,13.1-3.9.1.3.2.7.4,1-4.7,2.7-9.4,5.4-14,8,.1.3.3.5.4.8,3.7-1.3,7.4-2.6,11.1-3.9.2.4.4.8.5,1.2-3.1,2.1-6.3,4.2-9.4,6.2.1.3.3.6.4.9,3.1-.8,6.2-1.6,9.3-2.5.1.3.3.7.4,1l-12.8,7.1c.1.2.2.4.3.6,5.4-1.3,10.8-2.7,16.2-4,0,.3,0,.5.1.8-4.6,2.3-9.1,4.6-13.7,6.8.2.4.3.8.5,1.2,3.8-.8,7.6-1.5,11.4-2.3,0,.3.1.5.2.8-3.3,1.7-6.7,3.5-10,5.2.2.4.3.7.5,1.1,2.6-.4,5.1-.8,7.7-1.2,0,.2.2.4.2.6-2.8,1.6-5.6,3.2-9.4,5.3,24.4-5.6,47.8-6.2,71.2-1.2.1-.4.2-.9.3-1.3-10.1-2.7-20.2-5.5-30.4-8.2,0-.1,0-.3,0-.4,11.9.6,23.9,1.3,37.3,2-8-2.3-14.6-4.2-21.2-6.1,0-.5.2-1,.3-1.5h16.2c0-.3,0-.6,0-.9h-43.8l-.2-.9c17.1-2.5,34.2-4.9,51.3-7.4v-.9c-14-.6-27.9-1.2-41.9-1.8,0-.5,0-.9,0-1.4,12-1.5,24-3.1,35.9-4.6,0-.2,0-.4,0-.7h-34c0-.5-.1-.9-.2-1.4,11.7-1.6,23.4-3.1,35.1-4.7ZM352.2,408.1c.6-.7,1.4-1.4,1.8-2.2,3.4-7.3,6.8-14.6,10.2-21.8,9.9-21.2,19.8-42.5,29.9-63.6,2.4-4.9,4.9-9.6,4.7-15.4-.2-4.6-1.9-6.8-6.5-7.8-9.7-2.1-19.2-5-28.8-7.3-5.9-1.5-12-2.6-18.4-3.9,0,13.3,0,25.1,0,36.9,0,1.7.9,3.6,1.8,5.1,3.7,5.8,3.2,12.2-1.4,17.1-1.5,1.6-3.2,3-4.5,4.7-3.5,4.4-1.9,9.3,2.6,12.5,3.9,2.8,7.4,6.5,10,10.6,3.8,6.2-.4,11.7-3.2,17-2.7,5-1.9,14.3,1.8,18.1ZM404.2,380.5c.7,0,1.2,0,1.3-.1,12.2-12.7,28.2-15.4,44.5-15,20.1.6,39.4,5.5,57.7,14,1.8.8,3.7,1.6,6.6,2.9-3.9-6.1-22.4-15.6-36.6-19.4-24.2-6.4-47.7-6.1-69.3,9,.2-2.5.4-4.6.5-6.8,1-14.8,1.9-29.6,2.9-44.3.8-12.7,1.6-25.5,2.6-38.2.1-1.4,1.7-3.2,3.1-3.8,6.8-2.6,13.7-5,20.7-7.1,12.5-3.9,25.1-7.8,37.8-11.1,8.1-2.1,16.5-3.1,24.8-4.7,0-.4,0-.8-.1-1.2-6.7.4-13.5.6-20.2,1.2-22.8,1.8-44.4,7.8-64.7,18.3-4.1,2.1-6.5,5.3-6.9,10.2-.9,13.8-2.4,27.5-3.1,41.3-.9,18.2-1.1,36.4-1.7,54.7ZM355.9,464.4c2.2-3.1,3.7-4.8,4.7-6.7,3.8-7.8,7.4-15.6,11.1-23.5,4.7-10.1,8.7-20.5,14.3-30.1,7.6-13.1,10.6-26.7,9.2-41.6-.3-3,0-6,0-9,0-1.2-.2-2.3-.4-4.8-3.4,5.7-6.6,10-8.9,14.8-6.7,14-12.3,28.5-19.6,42.2-7.8,14.7-13.7,29.5-11.3,46.6.5,3.5.5,7.1.8,12.1ZM358.5,626.5c-25.3-14.1-75.6-13.9-82.7.5,23,.3,45.4,4.9,66.7,12.8,21.1,7.8,41.4,17.6,62.3,26.7-25.7-18.4-53.5-31.6-83.8-39.6.1-.4.3-.9.4-1.3,10.9,2.1,21.8,4.1,32.7,6.2-13.8-6.5-28.3-9.8-43.3-11.6,16.4-1.2,32,2.4,47.6,6.5ZM746.4,626.5c-18.4-13.6-58.3-13.1-82.7,1.4,16-4.7,32-9.3,48.9-7.8-4.7,1.2-9.5,1.9-14.2,2.9-4.9,1-9.8,2.1-14.5,3.6-4.3,1.4-8.5,3.3-13,5.1,12.5-2.6,24.4-5,36.4-7.5,0,.4.2.8.3,1.2-7.8,2.7-15.7,5.2-23.4,8-7.8,2.9-15.6,5.9-23.1,9.4-7.6,3.4-15,7.3-22.3,11.3-7.1,3.9-13.9,8.3-20.9,12.5.2.4.4.7.6,1.1,40-21.1,81-38.9,127.9-41.3ZM502.7,188.8c-19.5,1.6-139.7,44.5-145.4,51.8,49.2-15.4,97.5-33.2,145.4-51.8ZM618.7,379.3c1.2-32.5-.7-64.2-5.5-95.8-.7,0-1.4,0-2.2.1,1.6,30.3,3.1,60.5,4.7,90.6-4.7-2.6-9.2-5.1-13.7-7.6-.1.3-.3.5-.4.8,5.4,3.7,10.7,7.5,17.1,12ZM332.7,317.2c.7.3,1.4.6,2.2.9.7-1.7,1.9-3.4,2-5.2.3-17.1.3-34.3.6-51.4.1-7.6.6-15.3,4.6-22.2.9-1.6,1.8-3.2,3.3-5.8-10,5.2-12,13.4-12.3,22.1-.4,13.2-.3,26.5-.3,39.7,0,7.3,0,14.6,0,21.8ZM651.7,294.1c-.3-.3-.7-.6-1-.9-6.7,1.9-13.4,3.8-20.1,5.8-3.8,1.1-5.2,4.4-2.8,7.6,2.5,3.2,5.7,5.8,9.3,9.5,5.3-8,9.9-15,14.5-22ZM622.4,225.7c.3-.7.5-1.5.8-2.2-28.2-10.3-56.4-20.7-84.7-31-.3.8-.6,1.5-.8,2.3,28.2,10.3,56.4,20.7,84.7,31ZM400.7,677c-.3.4-.6.7-.9,1.1,6.6,6.6,13,13.4,19.8,19.8,5.1,4.8,6,4.5,10.5-2-9.8-6.3-19.6-12.6-29.4-18.9ZM342.6,368.4c-5.6-2.1-10-2-13.4,2.2-2.8,3.4-4.3,7.2-1.8,11.4,2,3.4,4.8,5.3,9.1,4-1.5-1.3-2.9-2.6-4.6-4.2,2.5-.9,4.1-1.5,5.7-2.1-.5-.2-1-.4-1.5-.6.4-2.4.8-4.8,1.2-7.2.2,0-1-.1-2.9-.4,2.9-1.1,5.1-1.9,8.2-3.1ZM337.9,328.7c-6.1-.7-10.1,1.6-10.6,5.7-.5,4.2,1.3,7.2,5.6,8.5.6-4.1,1.1-7.7,1.7-12.3,0,0,1.1-.6,3.3-1.9ZM339.3,512.6c.5,0,1,0,1.6,0,1-11.9,0-23.8-1.6-35.7v35.7ZM461.8,211c-.1-.4-.3-.8-.4-1.2-10.2,3.4-20.4,6.8-30.7,10.2.2.5.3,1,.5,1.4,10.2-3.5,20.4-6.9,30.6-10.4Z"/>
  <path class="cls-1" d="M341.7,920c31.4-51.1,56.1-105.3,89.3-156.4,3.7,4.1,6.8,7.5,9.8,11,8.4,9.9,16.9,19.9,25.2,29.9,7.4,8.9,14.7,17.9,22,26.9,4,4.9,7.8,9.9,11.7,14.8,11.8,14.5,23.6,29,35.5,43.5,7.1,8.6,14.4,16.9,21.4,25.6,13.6,16.9,27.1,33.9,40.7,50.8.3.4.4.9.9,2-3.9,2.3-7.8,4.8-11.8,7-22,12.1-44,24.2-66,36.3-7.6,4.2-14.4,3.7-22.3-.9-49.7-29-99.8-57.5-149.7-86.1-2.1-1.2-4.2-2.6-6.8-4.3ZM576.7,963.4c-.9-2.4-1.2-3.9-1.9-5.1-3-4.6-6-9.2-9.4-13.5-31.2-38-62.4-75.9-93.8-113.7-10.5-12.7-21.3-25.2-32.4-37.3-6.2-6.7-7.5-6.5-11.9,1.4-19.3,34.5-38.8,68.9-57.4,103.8-8.1,15.3-8.7,12.4,5.8,22.5,39.2,27.1,80.6,50.5,122.4,73.2,9.9,5.4,17.4,6,27,0,15-9.5,31-17.5,46.4-26.3,2.1-1.2,3.6-3.3,5.3-4.9Z"/>
  <path class="cls-1" d="M876.6,694.7c22.2-40.9,44.6-82.2,67.2-123.8.2,1,.5,2,.5,3,.5,49.4,1.2,98.9,1.4,148.3,0,13.3-1.5,26.5-2.8,39.7-.4,4.1-.9,10-5.7,10.6-3.2.4-7.7-2.9-10.1-5.8-6.9-8.5-13.1-17.5-19.3-26.5-10.3-14.8-20.4-29.7-31.2-45.5ZM927.8,635.7c-.7,0-1.3-.2-2-.2-2.5,3-5.6,5.6-7.5,8.9-7.4,13.2-14.8,26.5-21.2,40.2-1.9,4-2.1,10.4-.3,14.4,6.4,13.8,14.4,26.8,25.4,37.5,1.5,1.4,3.9,1.8,6,2.7.7-1.9,2.1-3.8,2.1-5.7.1-29.6.2-59.2,0-88.8,0-3-1.6-5.9-2.5-8.9Z"/>
  <path class="cls-1" d="M787.1,856.8c26.7-48,53.3-96.1,80.5-145.1,4.2,5.3,8.2,10,11.8,15,11.2,15.4,22.3,30.8,33.5,46.3.2.3.4.5.6.8q6,7.9-2.4,12.8c-35.2,20.4-70.5,40.9-105.7,61.4-5.7,3.3-11.3,6.8-16.9,10.1-.5-.4-.9-.8-1.4-1.3ZM869.9,736.1c-1.9,2.5-3.1,3.6-3.9,5-4.2,6.9-8.7,13.8-12.5,20.9-7,13.4-13.8,26.8-20.2,40.5-1.5,3.3-1,7.5-1.4,11.3,3.7-1.1,7.6-1.7,11-3.4,4.6-2.3,8.7-5.5,13.1-8.1,8.7-5.1,17.9-9.6,26.1-15.4,10.9-7.7,15.5-9.8,5.8-24.4-.2-.3-.2-.6-.4-.9-5.7-8.3-11.4-16.6-17.6-25.6Z"/>
  <path class="cls-1" d="M490.7,134.6c-18.7-27.9-36.5-54.5-54.7-81.6,2.1-1.5,3.3-2.5,4.7-3.3,20.8-11.8,41.8-23.4,62.5-35.4,5.8-3.4,10.9-3.7,16.6-.1,6.8,4.2,13.8,8,20.8,11.9,2.7,1.5,3.6,2.9,2.1,5.9-15.2,30.9-30.2,61.8-45.4,92.6-1.5,3-3.8,5.7-6.7,10ZM522.1,41.2c.3-10.4-9.5-17.4-16.6-13.1-14.5,8.7-28.6,18.1-42.9,27.2-4,2.6-4.6,6-1.9,9.7,8.1,11.3,15.9,22.9,24.5,33.8,4.6,5.9,6.5,5.6,10.1-1.1,8.1-15.1,15.6-30.4,23-45.8,1.9-4,2.9-8.4,3.8-10.8Z"/>
  <path class="cls-1" d="M867.6,703.7c-5.4-2.9-5.6-7.4-4.7-11.9.4-1.7,2.6-3.1,4-4.6,1.3,1.3,3.3,2.5,3.9,4.1,1.6,4.6,0,8.7-3.2,12.4Z"/>
  <path class="cls-2" d="M658.3,597.4c-4,.3-8.1.2-12,.8-17.9,3-33.7,11.2-49,20.5-10.2,6.2-19.9,13.2-28.7,19,8-10.8,40.3-34.7,75.5-43.1-7.9-1.3-26.5,4.9-44.8,16.1-13.6,8.4-26.5,18-38.5,26.2,10-10.2,21.4-21.1,35.4-29.1,14-8.1,28.3-15.4,44.6-18,10.8-1.7,20.9-.6,30.6,4.1,4.4,2.1,8.5.8,13.8-.3-5.1-6.3-11.4-8.9-17.5-11.5-23.7-10.2-47.1-9-70.4,2.2-17.7,8.5-33.2,20.1-48.2,32.5-3.2,2.6-6.5,5.2-9.9,7.5,8.1-11.7,19.3-20.1,31-28.9-9.8,3-25.4,16.2-56.6,47.7-1.8-1.4-3.8-2.7-5.4-4.4-16.2-17-34.3-31.5-53.8-44.4-.9-.6-2-.9-3.2-.9,9.3,7.7,18.6,15.5,27.9,23.2-.3.3-.5.7-.8,1-8.6-6.1-17.1-12.2-25.8-18.1-13.9-9.5-28.2-18.5-44.7-22.5-24.1-5.8-46.1-.3-66.4,13.4-.5.4-1,.9-1.3,1.5-.3.4-.4.9-1,2.5,4.8,0,9.8,1.5,13.2-.3,14.1-7.4,28.2-6.1,42.6-1.7,21.7,6.6,49.7,24.7,64.9,42.3-24.3-17.4-48.4-35.1-78.7-40.9,24,7.3,45.7,18.8,64.3,36.1-2.3-1.5-4.6-3-7-4.4-2.6-1.5-5.2-3-7.7-4.5-14.2-8.7-28.6-17-45-21.1-5.6-1.4-11.4-1.9-17.2-2.6-1-.1-2.1.7-4.7,1.7,54.3,19.6,95.2,54.3,128.6,98.6-.3.3-.5.7-.8,1-2-1.9-4.1-3.8-6.1-5.7-2.1-2.1-4.2-4.3-6.3-6.4-31.1-29.9-64-57.5-104.5-74-10.4-4.2-21.5-6.6-32.4-9.6-3.1-.8-5.6-1.5-7.4-4.6-3.2-5.6-7.1-10.9-10.8-16.2-3.2-4.6-4-9.6-1.6-14.6,7.8-16.6,15.9-33.1,23.3-48.7,3.1.9,6.6,2.9,7.7,2,1.9-1.5,2.6-4.9,3-7.6.5-2.7.2-5.7,0-8.5-.5-5.4.7-10.2,3-15.3,12.4-26.5,24.4-53.1,36.6-79.7.8-1.8,2.7-3,4-4.6,1.2-1.5,2.7-3,3.4-4.8,6.4-16.1,19.8-22.5,35.4-24.6,25.6-3.4,49.1,3.1,70.6,17.2,1.3.8,4.1.5,5.6-.4,13.2-8,27.3-13.7,42.6-16.2,17.4-2.9,34.6-2.7,49.9,7.8,8.5,5.8,13.3,14.5,16.2,24.3.2.8.7,1.7,1.3,2.3,2.2,1.9,4.6,3.7,7.2,5.9,1.3-1.6,2.9-3.2,4.2-5,2.7-3.6,5.3-3.4,8,0,9.2,12.1,18.8,23.8,27.4,36.2,56,81.1,111.8,162.3,167.6,243.4,1.6,2.3,2.5,4.1.9,7.1-25.6,46.8-51.1,93.7-76.5,140.6-8.4,15.5-20,27.8-35.2,36.6-34.5,20-69.1,39.9-103.7,59.7-8.4,4.8-9.1,4.8-15.6-2.5-13.2-15-26.1-30.3-38.8-45.7-33.2-40.4-66.3-80.9-99.4-121.4-4.3-5.3-8.5-10.7-12.3-16.3-1.1-1.6-1.6-4.5-1-6.3,2-5.9,4.6-11.6,7.2-18.2,17.7,15.8,32.4,33.1,47.1,51.5,3.5-4.2,6.5-7.8,9.4-11.6,30.8-40,69.4-70.6,113.6-94.4,21.8-11.7,44.4-21.3,68.2-27.9,22.5-6.2,45.3-9.7,68.5-3.7,4.7,1.2,9.1,3.1,13.8,4.4,1.6.4,3.5,0,5.3,0-.8-1.6-1.1-4-2.4-4.7-12.7-7.7-25-16.1-38.4-22.3-12.3-5.7-25.4-10.3-38.7-12.9-24.6-4.7-47.7,2.1-70,12.6-41.1,19.3-75,47.8-106,80.3-1,1-2.1,2-3.7,2.5,15.8-22.3,33.6-42.8,55.4-59.5,21.7-16.6,45.1-30.4,70.9-39.9,0-.7-.1-1.3-.2-2ZM583.2,565.6c0-1.3,0-2.3-.2-3.3-.4-4.1-.7-8.2-1.4-12.2-.1-.8-1.5-1.9-2.3-2-.7,0-1.9,1.1-2.2,1.9-4.2,11.2-11.7,20.3-20.6,27.7-13.3,11-27.5,20.9-41.5,30.9-1.3.9-4.5.5-6-.5-9.9-6.8-19.6-13.7-29.2-20.9-14.2-10.6-26.7-22.6-32.9-39.7,0-.2-.5-.3-1.3-.6-5.6,5.4-2.2,12.8-4,19.1-8.6,0-17.2-1.5-25.5,3.5,36.5,8.9,65.5,30.9,96.1,48.7,31.8-17.1,60.3-40.2,96.8-48.7-8.3-4.2-16.6-4.6-25.7-3.9Z"/>
  <path class="cls-2" d="M752.9,262.7c-10.3-3.8-20.6-7.6-32.2-11.8,14-23.5,27.4-46.4,41.4-69,4.9-8,6.1-7.7,14.5-3,6.2,3.5,12.4,7.1,18.5,10.8,39.2,23.2,78.1,47,117.9,69.1,11.9,6.6,15.9,15.1,16,27,.5,50.6.9,101.3,1,151.9,0,32.7-.6,65.3-1,98,0,2.1-.3,4.4-1.2,6.2-17,30.3-34.1,60.6-51.3,90.7-2.5,4.4-5.7,8.6-9,12.5-3.5,4.1-5.6,4-8.7-.4-12.1-16.7-24.1-33.5-35.8-50.5-47.4-68.8-94.6-137.7-141.8-206.6-4.1-6-7.4-12.6-11.1-18.9-3.4-5.9-3.6-12-.6-18.1,7-14.3,14-28.6,21.2-42.8,4.5-8.7,9.6-17.1,13.9-25.9,1.7-3.4,4-4.8,7.4-5.7,11.8-3,23.5-6.2,35.2-9.4,1.9-.5,3.6-1.4,5.4-2,0-.7.2-1.3.3-2Z"/>
  <path class="cls-2" d="M272.7,264.9c1.6.7,3.1,1.6,4.8,2,16.4,4.1,32.9,8.1,49.3,12.4,1.4.4,3.2,2.6,3.2,4,.2,12,.2,24-.2,36,0,2.1-1.6,4.9-3.3,6.2-9.3,6.9-7.2,18.5,1.3,23.8,3.3,2.1,4.7,4.7,3.8,8.2-.4,1.7-1.6,3.9-3,4.4-10,3.5-15.1,15.5-7.9,27.5,2.2,3.6,2.5,6.7,1.6,10.7-5.1,23.2-5.9,46.9-6,70.5,0,8.7-1.1,16.6-5.6,24.3-7,11.9-13.1,24.3-19.9,36.3-3.8,6.6-5.1,6.8-10.1,1-14-16.3-27.8-32.7-41.5-49.3-43.4-52.9-86.8-105.9-130-159-6.7-8.2-13.3-16.6-15.6-27.5-3.6-16.8.4-28.3,15-37.3,16.3-10.1,33.1-19.2,49.7-28.8,64.2-37.3,128.3-74.8,192.5-112.1,20-11.6,40.2-22.9,60.2-34.5,4.4-2.6,7.8-2.2,11,1.6,3.1,3.7,6.4,7.2,9.2,11.2,10.7,15.5,21.2,31.1,31.7,46.7,5.5,8.2,6.5,16.5,1.2,25.7-4.3,7.5-7.3,15.7-11.1,23.4-.9,1.9-2.8,3.8-4.7,4.5-24.3,9.1-48.7,18-73.1,26.8-2.4.8-5.1,1-7.7.7-16-1.4-29.7,2-38.5,17.2-1.2,2.1-4.4,3.4-6.9,4.3-14.3,4.9-28.7,9.5-43.1,14.3-2.3.8-4.4,2.1-6.6,3.2,0,.5.2,1,.3,1.5Z"/>
  <path class="cls-2" d="M234.8,642.8c1.9.1,3.9.3,7.3.5-2,4.8-3.6,8.9-5.4,12.9-6,13.3-11.9,26.7-18,39.9-4.1,8.8-8.8,17.4-12.9,26.2-8.9,18.8-17.5,37.7-26.5,56.4-2.5,5.2-5.7,10.2-9.2,14.8-3,3.9-9.7,4.8-14.1,2.3-15.6-8.8-31.1-17.7-46.7-26.5-4.1-2.3-8.2-4.6-12.3-6.9-3.1-1.8-4-4.5-3.9-8,0-27.3,0-54.6,0-82,0-11.7.4-23.4-.3-35-3.8-67.2-.8-134.4-1.6-201.7-.2-17.3,1.3-34.7,1.9-52.1.1-3,1.3-5,4-5.3,1.6-.2,3.9.7,4.9,1.9,5.9,6.8,11.5,13.9,17.3,20.8,3.5,4.2,6.9,8.4,10.5,12.5,5.3,6.1,10.8,12,15.9,18.3,7.3,8.9,14.2,18,21.4,27,4.6,5.6,9.5,11,14.1,16.6,9.4,11.2,18.7,22.5,28,33.7,2.9,3.5,5.8,7.2,8.7,10.7,7.6,9.1,15.2,18.2,22.9,27.2,7.4,8.8,15,17.5,22.3,26.4,4.1,5.1,5,10.8,2.4,17.1-5,11.8-10.1,23.5-14.6,35.5-2,5.3-6.2,7.6-10.2,10.5-2.2,1.6-4.3,3.3-6.5,4.9.2.4.4.8.6,1.3Z"/>
  <path class="cls-2" d="M402.2,751.4c-2.8,6.3-5.4,12.8-8.6,18.8-7.6,14.4-15.6,28.5-23.3,42.8-9.3,17.1-18.4,34.4-27.9,51.4-4,7.1-8.6,13.9-13.6,20.2-3.9,4.9-11.4,5.9-17.2,2.9-7.4-3.8-14.6-7.8-21.8-11.8-16.5-9.2-33-18.3-49.3-27.8-8.8-5-17.2-10.6-25.8-15.9-7.1-4.4-9.7-13-6.2-20.7,7.4-16.1,14.8-32.1,22.1-48.2,5.4-12,10.6-24,16-36,5-11.1,10.1-22.1,15.3-33.1,6.1-12.9,12.4-25.7,18.5-38.6,2.5-5.3,4.7-10.7,7.2-16,.5-1,1.8-2.4,2.7-2.3,5.5.2,11.1.8,16.6,1.3.6,0,1.3.5,1.9.4,8.3-.8,11.7,5.5,15.8,10.9.8,1,1.5,2.2,2.3,3.2,8.1,9.5,16.3,19,24.4,28.6,6.2,7.4,12.5,14.8,18.5,22.4,10.1,12.9,21.8,24.6,29.5,39.3,1.2,2.2,1.5,4.9,2.2,7.4.3.2.5.5.8.7Z"/>
  <path class="cls-2" d="M521.7,149.3c.5-1.8.7-3.5,1.4-5,11.6-25,22.9-50.2,35.1-75,5.9-12.1,7.7-12.1,19.5-5.4,27,15.4,54,31,80.9,46.6,14.1,8.1,28.4,16.1,42.2,24.6,7.9,4.9,15.1,10.8,22.7,16.2,2.3,1.6,2.8,3.3,1.4,5.8-13.4,25.3-26.7,50.6-39.9,76-1.4,2.7-2.9,3-5.6,2-18.7-7-37.4-14-56.1-20.9-25.4-9.5-50.8-19-76.2-28.3-3.8-1.4-6.6-3.3-8.6-6.9-4.8-8.6-10.1-16.9-15.1-25.3-.8-1.4-1.2-3-1.8-4.5Z"/>
  <path class="cls-2" d="M500.1,319.5c-11.7,1.6-23.4,3.1-35.1,4.7,0,.5.1.9.2,1.4h34c0,.2,0,.4,0,.7-12,1.5-24,3.1-35.9,4.6,0,.5,0,.9,0,1.4,14,.6,28,1.2,42,1.8v.9c-17.1,2.5-34.3,4.9-51.4,7.4l.2.9h43.8c0,.3,0,.6,0,.9h-16.2c0,.5-.2,1-.3,1.5,6.6,1.9,13.2,3.8,21.2,6.1-13.4-.7-25.4-1.3-37.3-2,0,.1,0,.3,0,.4,10.1,2.7,20.2,5.5,30.4,8.2-.1.4-.2.9-.3,1.3-23.5-5-46.8-4.4-71.2,1.2,3.8-2.1,6.6-3.7,9.4-5.3,0-.2-.2-.4-.2-.6-2.6.4-5.1.8-7.7,1.2-.2-.4-.3-.7-.5-1.1,3.3-1.7,6.7-3.5,10-5.2,0-.3-.1-.5-.2-.8-3.8.8-7.6,1.5-11.4,2.3-.2-.4-.3-.8-.5-1.2,4.6-2.3,9.1-4.6,13.7-6.8,0-.3,0-.5-.1-.8-5.4,1.3-10.8,2.7-16.2,4-.1-.2-.2-.4-.3-.6l12.8-7.1c-.1-.3-.3-.7-.4-1-3.1.8-6.2,1.6-9.3,2.5-.1-.3-.3-.6-.4-.9,3.1-2.1,6.3-4.2,9.4-6.2-.2-.4-.4-.8-.5-1.2-3.7,1.3-7.4,2.6-11.1,3.9-.1-.3-.3-.5-.4-.8,4.7-2.7,9.4-5.4,14-8-.1-.3-.2-.7-.4-1-4.4,1.3-8.7,2.6-13.1,3.9-.1-.2-.3-.4-.4-.7,4.4-2.8,8.8-5.6,13.2-8.3l-.6-1.2c-3.9,1.4-7.9,2.9-11.8,4.3-.2-.3-.3-.6-.5-.9,4.4-2.8,8.9-5.5,13.3-8.3-.1-.3-.2-.5-.3-.8-4,1.3-8,2.5-12.1,3.8-.1-.2-.3-.5-.4-.7,4.6-2.8,9.1-5.7,13.7-8.5-.2-.3-.3-.7-.5-1l-14,5.6c-.2-.3-.4-.6-.6-.8,4.6-2.9,9.2-5.9,13.8-8.8-.1-.3-.3-.6-.4-.9-4.1,1.6-8.2,3.1-12.3,4.7-.2-.3-.4-.5-.6-.8,4.7-3.1,9.4-6.2,15.2-9.9-3.5.8-6.1,1.3-8.5,2.1-2.6.9-5,2.3-7.5,3.4-.2-.4-.5-.9-.7-1.3l14.4-9c0-.3-.2-.5-.3-.8-4.4,1.3-8.8,2.7-13.3,4l-.4-.6c2.3-1.5,4.5-3.2,6.9-4.5,2.5-1.3,5.1-2.2,7.7-3.2-.1-.5-.3-1-.4-1.5l-14.8,4.1c-.2-.3-.3-.7-.5-1,5.4-2.7,10.8-5.5,16.2-8.2-.1-.4-.3-.7-.4-1.1-5.5,1.8-11,3.5-16.4,5.2,3.4-8.7,38.5-17.2,55.1-16.3-9,2.8-18,5.7-27.1,8.5.1.4.2.8.3,1.2,7.9-1.6,15.8-3.6,23.9-4.6,8.2-1,16.5-1.1,24.7-1.3-14.7,3.2-29.5,6.4-44.2,9.6,0,.4.2.9.2,1.3,13-1.1,26-2.2,39-3.3,0,.4,0,.7.1,1.1-11.4,2.6-22.7,5.2-34.1,7.8,0,.5.2.9.3,1.4,6.7-.7,13.3-1.5,20-2.2,0,.6.2,1.1.2,1.7-6.9,1.7-13.8,3.4-20.7,5.1,0,.1,0,.2.1.3,15-.6,30-1.2,45-1.9v.7c-14.6,3-29.3,5.9-43.9,8.9,0,.4.2.8.3,1.2h28.1c-8.1,1.2-15.1,2.3-22.1,3.3,0,.3,0,.7,0,1h39.9c0,.3,0,.6,0,.9l-24.8,3.5c0,.3,0,.7.1,1h15.1c0,.2,0,.5,0,.7-9.3,1.3-18.5,2.5-27.8,3.8,0,.4,0,.7.1,1.1h34.2c0,.2,0,.5,0,.7Z"/>
  <path class="cls-2" d="M352.2,408.1c-3.7-3.8-4.5-13-1.8-18.1,2.8-5.4,7.1-10.8,3.2-17-2.5-4.1-6.1-7.8-10-10.6-4.5-3.2-6.1-8.2-2.6-12.5,1.3-1.7,3-3.1,4.5-4.7,4.7-4.9,5.1-11.2,1.4-17.1-.9-1.5-1.8-3.4-1.8-5.1-.2-11.8,0-23.6,0-36.9,6.4,1.3,12.4,2.4,18.4,3.9,9.6,2.4,19.1,5.2,28.8,7.3,4.6,1,6.3,3.2,6.5,7.8.2,5.8-2.3,10.4-4.7,15.4-10.1,21.1-20,42.4-29.9,63.6-3.4,7.3-6.8,14.6-10.2,21.8-.4.8-1.2,1.4-1.8,2.2Z"/>
  <path class="cls-2" d="M404.2,380.5c.5-18.3.8-36.5,1.7-54.7.7-13.8,2.2-27.5,3.1-41.3.3-4.9,2.8-8.1,6.9-10.2,20.3-10.5,41.9-16.5,64.7-18.3,6.7-.5,13.5-.8,20.2-1.2,0,.4,0,.8.1,1.2-8.3,1.5-16.7,2.5-24.8,4.7-12.7,3.3-25.2,7.2-37.8,11.1-7,2.1-13.9,4.5-20.7,7.1-1.4.5-3,2.4-3.1,3.8-1,12.7-1.8,25.5-2.6,38.2-1,14.8-1.9,29.6-2.9,44.3-.1,2.1-.3,4.3-.5,6.8,21.7-15.1,45.1-15.5,69.3-9,14.2,3.8,32.7,13.3,36.6,19.4-3-1.3-4.8-2-6.6-2.9-18.3-8.5-37.7-13.5-57.7-14-16.3-.5-32.3,2.3-44.5,15-.2.2-.6,0-1.3.1Z"/>
  <path class="cls-2" d="M355.9,464.4c-.3-5-.3-8.6-.8-12.1-2.5-17.1,3.5-31.8,11.3-46.6,7.2-13.7,12.9-28.2,19.6-42.2,2.3-4.8,5.4-9.1,8.9-14.8.2,2.4.4,3.6.4,4.8,0,3-.3,6,0,9,1.5,14.9-1.5,28.5-9.2,41.6-5.6,9.5-9.6,20-14.3,30.1-3.7,7.8-7.3,15.7-11.1,23.5-1,2-2.5,3.7-4.7,6.7Z"/>
  <path class="cls-2" d="M358.5,626.5c-15.6-4-31.3-7.7-47.6-6.5,15,1.8,29.5,5.1,43.3,11.6-10.9-2.1-21.8-4.1-32.7-6.2-.1.4-.3.9-.4,1.3,30.3,8,58.2,21.2,83.8,39.6-21-9.1-41.3-18.9-62.3-26.7-21.3-7.9-43.6-12.5-66.7-12.8,7.1-14.3,57.4-14.6,82.7-.5Z"/>
  <path class="cls-2" d="M746.4,626.5c-46.9,2.4-87.9,20.2-127.9,41.3-.2-.4-.4-.7-.6-1.1,7-4.2,13.8-8.6,20.9-12.5,7.3-4,14.7-7.9,22.3-11.3,7.6-3.4,15.3-6.5,23.1-9.4,7.7-2.9,15.6-5.4,23.4-8,0-.4-.2-.8-.3-1.2-12,2.5-23.9,4.9-36.4,7.5,4.5-1.8,8.7-3.8,13-5.1,4.7-1.5,9.6-2.5,14.5-3.6,4.7-1,9.5-1.7,14.2-2.9-16.9-1.5-32.9,3.1-48.9,7.8,24.3-14.5,64.3-15,82.7-1.4Z"/>
  <path class="cls-2" d="M502.7,188.8c-48,18.6-96.3,36.4-145.4,51.8,5.7-7.3,126-50.2,145.4-51.8Z"/>
  <path class="cls-2" d="M618.7,379.3c-6.4-4.5-11.8-8.2-17.1-12,.1-.3.3-.5.4-.8,4.5,2.5,9,5,13.7,7.6-1.5-30.1-3.1-60.3-4.7-90.6.7,0,1.4,0,2.2-.1,4.8,31.6,6.7,63.3,5.5,95.8Z"/>
  <path class="cls-2" d="M332.7,317.2c0-7.3,0-14.6,0-21.8,0-13.2,0-26.5.3-39.7.3-8.7,2.3-16.8,12.3-22.1-1.5,2.6-2.4,4.2-3.3,5.8-3.9,6.9-4.4,14.5-4.6,22.2-.3,17.1-.3,34.3-.6,51.4,0,1.7-1.3,3.4-2,5.2-.7-.3-1.4-.6-2.2-.9Z"/>
  <path class="cls-2" d="M651.7,294.1c-4.6,7-9.2,14-14.5,22-3.7-3.7-6.9-6.3-9.3-9.5-2.5-3.2-1.1-6.4,2.8-7.6,6.7-2,13.4-3.9,20.1-5.8.3.3.7.6,1,.9Z"/>
  <path class="cls-2" d="M622.4,225.7c-28.2-10.3-56.4-20.7-84.7-31,.3-.8.6-1.5.8-2.3,28.2,10.3,56.4,20.7,84.7,31-.3.7-.5,1.5-.8,2.2Z"/>
  <path class="cls-2" d="M400.7,677c9.8,6.3,19.6,12.6,29.4,18.9-4.5,6.5-5.4,6.8-10.5,2-6.8-6.4-13.2-13.2-19.8-19.8.3-.4.6-.7.9-1.1Z"/>
  <path class="cls-2" d="M342.6,368.4c-3.1,1.2-5.3,2-8.2,3.1,1.9.3,3.1.5,2.9.4-.4,2.5-.8,4.9-1.2,7.2.5.2,1,.4,1.5.6-1.6.6-3.3,1.2-5.7,2.1,1.7,1.6,3.1,2.8,4.6,4.2-4.3,1.3-7.1-.6-9.1-4-2.5-4.3-1-8,1.8-11.4,3.5-4.3,7.8-4.3,13.4-2.2Z"/>
  <path class="cls-2" d="M337.9,328.7c-2.2,1.3-3.4,1.9-3.3,1.9-.6,4.5-1.1,8.2-1.7,12.3-4.3-1.3-6.1-4.3-5.6-8.5.5-4.1,4.6-6.4,10.6-5.7Z"/>
  <path class="cls-2" d="M339.3,512.6v-35.7c1.5,11.9,2.6,23.8,1.6,35.7-.5,0-1,0-1.6,0Z"/>
  <path class="cls-2" d="M461.8,211c-10.2,3.5-20.4,6.9-30.6,10.4-.2-.5-.3-1-.5-1.4,10.2-3.4,20.4-6.8,30.7-10.2.1.4.3.8.4,1.2Z"/>
  <path class="cls-2" d="M576.7,963.4c-1.7,1.6-3.2,3.7-5.3,4.9-15.5,8.8-31.4,16.8-46.4,26.3-9.6,6-17.1,5.4-27,0-41.8-22.7-83.2-46.1-122.4-73.2-14.6-10.1-14-7.2-5.8-22.5,18.6-34.9,38-69.3,57.4-103.8,4.4-7.9,5.7-8.1,11.9-1.4,11.2,12.1,21.9,24.6,32.4,37.3,31.4,37.8,62.6,75.7,93.8,113.7,3.5,4.2,6.4,8.9,9.4,13.5.8,1.2,1.1,2.7,1.9,5.1Z"/>
  <path class="cls-2" d="M927.8,635.7c.9,3,2.4,5.9,2.5,8.9.2,29.6.2,59.2,0,88.8,0,1.9-1.4,3.8-2.1,5.7-2-.9-4.5-1.3-6-2.7-11-10.7-19.1-23.7-25.4-37.5-1.8-4-1.6-10.3.3-14.4,6.4-13.7,13.9-26.9,21.2-40.2,1.9-3.3,4.9-6,7.5-8.9.7,0,1.3.2,2,.2Z"/>
  <path class="cls-2" d="M869.9,736.1c6.2,9,11.9,17.3,17.6,25.6.2.3.3.6.4.9,9.6,14.6,5,16.7-5.8,24.4-8.2,5.8-17.4,10.2-26.1,15.4-4.4,2.6-8.5,5.8-13.1,8.1-3.4,1.7-7.3,2.3-11,3.4.4-3.8-.1-8,1.4-11.3,6.4-13.7,13.2-27.1,20.2-40.5,3.8-7.2,8.3-14,12.5-20.9.8-1.4,2-2.5,3.9-5Z"/>
  <path class="cls-2" d="M522.1,41.2c-.8,2.4-1.8,6.8-3.8,10.8-7.5,15.4-15,30.7-23,45.8-3.6,6.7-5.5,6.9-10.1,1.1-8.6-11-16.5-22.5-24.5-33.8-2.7-3.8-2.1-7.1,1.9-9.7,14.3-9.1,28.3-18.5,42.9-27.2,7.2-4.3,17,2.7,16.6,13.1Z"/>
  <path class="cls-1" d="M583.2,565.6c9.1-.7,17.4-.3,25.7,3.9-36.6,8.5-65,31.7-96.8,48.7-30.6-17.8-59.6-39.8-96.1-48.7,8.3-5.1,16.9-3.6,25.5-3.5,1.8-6.3-1.7-13.8,4-19.1.7.4,1.2.4,1.3.6,6.3,17.2,18.8,29.2,32.9,39.7,9.6,7.2,19.3,14.1,29.2,20.9,1.5,1,4.8,1.4,6,.5,14-10.1,28.3-19.9,41.5-30.9,8.9-7.4,16.4-16.5,20.6-27.7.3-.8,1.6-2,2.2-1.9.9.1,2.2,1.2,2.3,2,.7,4.1,1,8.2,1.4,12.2,0,1,.1,1.9.2,3.3Z"/>
</svg>