<?xml version="1.0" standalone="no"?>
<!DOCTYPE svg PUBLIC "-//W3C//DTD SVG 20010904//EN"
 "http://www.w3.org/TR/2001/REC-SVG-20010904/DTD/svg10.dtd">
<svg version="1.0" xmlns="http://www.w3.org/2000/svg"
 width="700.000000pt" height="700.000000pt" viewBox="0 0 700.000000 700.000000"
 preserveAspectRatio="xMidYMid meet">
<metadata>
Created by potrace 1.14, written by Peter Selinger 2001-2017
</metadata>
<g transform="translate(0.000000,700.000000) scale(0.100000,-0.100000)"
fill="#000000" stroke="none">
<path d="M3403 6884 c-77 -41 -412 -231 -422 -240 -4 -4 225 -352 311 -471 34
-47 64 -80 71 -77 20 7 117 190 236 440 59 126 111 239 115 251 6 18 0 27 -35
48 -42 27 -173 95 -182 95 -3 0 -45 -21 -94 -46z m135 -93 c17 -17 32 -39 32
-50 0 -66 -184 -441 -216 -441 -25 0 -153 159 -198 248 -9 18 -14 41 -11 51 5
17 211 159 290 199 53 28 65 27 103 -7z"/>
<path d="M3766 6667 c-22 -50 -61 -137 -87 -192 -136 -290 -202 -440 -214
-487 -5 -20 4 -43 41 -104 49 -81 186 -287 315 -474 39 -58 155 -229 257 -380
102 -151 202 -298 221 -327 20 -29 43 -53 51 -53 20 0 210 332 405 706 38 71
71 134 75 139 20 26 250 494 250 507 0 14 -89 72 -225 148 -22 12 -96 55 -165
95 -69 40 -213 123 -320 185 -244 141 -488 287 -519 312 -13 10 -29 18 -35 18
-6 0 -29 -42 -50 -93z m231 -132 c128 -69 406 -231 533 -311 52 -34 124 -75
160 -93 65 -33 203 -122 250 -162 l24 -21 -51 -101 c-29 -56 -76 -147 -106
-202 -29 -55 -84 -158 -122 -230 -37 -71 -91 -170 -118 -220 -27 -49 -63 -115
-80 -145 -43 -79 -113 -186 -127 -195 -27 -17 -115 95 -391 500 -101 149 -194
284 -207 300 -12 17 -25 38 -28 48 -4 9 -10 17 -15 17 -5 0 -9 5 -9 11 0 5
-17 36 -39 67 -54 81 -101 166 -101 185 0 39 204 481 259 561 18 25 39 46 48
46 9 0 63 -25 120 -55z"/>
<path d="M2760 6507 c-168 -93 -181 -100 -455 -259 -435 -252 -569 -330 -595
-347 -14 -8 -34 -21 -45 -27 -11 -6 -139 -81 -285 -166 -254 -149 -478 -279
-585 -340 -27 -15 -99 -54 -158 -86 l-108 -57 6 -169 6 -169 76 -96 c42 -53
79 -98 83 -101 3 -3 55 -66 115 -140 60 -74 111 -137 114 -140 4 -3 33 -39 66
-80 32 -41 64 -80 70 -86 5 -6 26 -30 45 -54 41 -51 213 -261 240 -293 10 -12
87 -105 171 -207 84 -102 192 -230 239 -285 47 -55 97 -113 110 -129 64 -74
113 -126 120 -126 8 0 216 414 288 570 16 36 50 108 75 160 25 52 61 130 81
173 20 42 52 112 72 155 20 42 56 120 81 172 25 52 56 118 68 145 12 28 42 91
65 140 23 50 73 155 110 235 38 80 91 195 120 255 29 61 62 133 75 160 25 56
74 160 177 375 38 80 79 166 91 192 24 51 33 56 63 33 27 -20 52 -18 59 5 10
31 -3 75 -30 100 -26 25 -31 21 -37 -30 -2 -14 -7 -25 -13 -25 -12 0 -117 141
-277 371 -105 151 -169 234 -179 234 -2 0 -56 -28 -119 -63z m138 -109 c23
-23 42 -45 42 -48 0 -4 9 -18 21 -31 46 -53 209 -307 224 -348 8 -24 12 -54 9
-65 -9 -27 -167 -369 -334 -721 -28 -60 -71 -153 -95 -205 -23 -52 -59 -130
-79 -172 -70 -151 -104 -224 -146 -313 -23 -49 -59 -126 -80 -170 -21 -44 -74
-156 -119 -249 -45 -92 -81 -170 -81 -172 0 -13 -232 -468 -263 -517 -33 -52
-40 -57 -54 -45 -32 26 -93 95 -238 273 -81 99 -154 189 -163 200 -10 11 -35
42 -57 70 -37 46 -216 265 -253 310 -21 25 -208 253 -231 280 -9 12 -37 45
-62 75 -194 232 -282 353 -294 408 -12 56 -9 135 7 173 25 58 98 108 428 291
25 14 331 192 680 395 349 204 649 379 667 389 206 121 409 234 418 234 7 0
31 -19 53 -42z"/>
<path d="M5183 5896 c-27 -30 -140 -218 -225 -376 -20 -36 -47 -85 -61 -110
-13 -25 -116 -214 -227 -420 -112 -206 -213 -394 -226 -417 l-23 -41 88 -129
c73 -107 631 -920 750 -1091 20 -29 73 -106 118 -172 243 -354 537 -760 551
-760 7 0 20 18 54 79 41 71 216 387 253 456 21 39 50 93 65 120 15 28 41 75
57 105 17 30 49 89 72 131 l41 76 0 929 -1 929 -401 235 c-220 129 -498 292
-617 362 -119 70 -221 127 -227 128 -7 0 -25 -15 -41 -34z m182 -154 c236
-138 364 -214 593 -349 134 -80 267 -157 295 -173 63 -34 86 -73 95 -167 4
-37 6 -444 5 -904 l-2 -836 -50 -88 c-28 -48 -51 -90 -51 -92 0 -17 -283 -494
-312 -527 l-38 -41 -31 35 c-36 41 -157 213 -324 460 -234 347 -408 600 -702
1024 -61 88 -134 193 -161 232 -54 75 -110 179 -118 216 -8 44 75 217 293 608
11 19 41 76 68 125 206 381 302 535 333 535 4 0 52 -26 107 -58z"/>
<path d="M3356 5763 c-36 -66 -226 -448 -226 -456 0 -3 -24 -56 -54 -118 -29
-63 -79 -170 -111 -239 -32 -69 -85 -181 -117 -250 -52 -108 -234 -494 -330
-700 -76 -162 -117 -250 -213 -455 -57 -121 -133 -282 -169 -359 -36 -76 -66
-143 -66 -150 0 -6 57 -81 126 -166 271 -333 615 -748 666 -804 l54 -60 51 85
c41 69 323 573 433 774 15 28 80 146 144 263 64 117 130 238 147 270 17 31 83
152 146 267 64 116 131 239 151 275 19 36 58 106 85 155 28 50 66 119 85 155
60 113 142 249 152 255 6 4 19 -3 29 -14 22 -26 38 -27 49 -3 9 19 9 21 -1 75
-8 39 -26 47 -47 22 -7 -8 -18 -15 -24 -15 -30 0 -131 136 -456 610 -340 495
-444 643 -456 647 -5 2 -27 -27 -48 -64z m106 -178 c33 -41 158 -221 323 -465
76 -113 187 -274 247 -358 60 -84 120 -171 133 -194 l24 -42 -103 -201 c-57
-110 -116 -222 -130 -248 -14 -26 -36 -66 -49 -89 -121 -220 -153 -279 -175
-318 -21 -38 -88 -162 -332 -615 -73 -136 -173 -320 -195 -360 -205 -372 -276
-485 -303 -485 -33 0 -255 244 -477 525 -153 194 -225 304 -225 344 0 18 35
103 86 208 128 265 364 768 364 777 0 4 42 92 156 334 24 50 64 134 88 185 66
139 128 269 186 392 29 61 68 144 87 185 146 316 190 406 217 437 31 36 40 35
78 -12z"/>
<path d="M530 3253 l0 -1499 113 -64 c61 -36 128 -73 147 -84 19 -10 85 -47
145 -81 174 -99 237 -128 252 -119 8 5 41 68 74 139 34 72 73 157 89 190 15
33 85 184 155 335 188 405 189 409 228 490 51 110 134 284 174 368 19 39 38
72 43 72 5 0 25 -9 44 -21 34 -20 35 -20 45 -1 12 23 8 49 -13 91 -19 36 -27
38 -51 11 -34 -37 -57 -16 -306 280 -85 102 -240 289 -343 415 -104 127 -198
241 -210 255 -19 22 -225 275 -490 604 l-96 118 0 -1499z m450 789 c191 -234
286 -347 320 -382 8 -8 44 -51 80 -96 36 -44 121 -150 190 -235 68 -85 145
-176 170 -202 75 -80 86 -103 70 -146 -16 -45 -83 -206 -121 -288 -16 -35 -43
-93 -60 -130 -453 -987 -471 -1023 -523 -1007 -37 11 -136 65 -298 161 l-158
94 -1 72 c0 40 -3 180 -7 312 -9 334 -9 1892 0 2052 5 72 11 139 15 149 9 24
63 -35 323 -354z"/>
<path d="M4364 4392 c-31 -21 -119 -174 -285 -489 -34 -65 -65 -122 -69 -128
-4 -5 -26 -46 -50 -90 -52 -97 -99 -184 -132 -245 -14 -25 -39 -70 -55 -100
-17 -30 -67 -120 -111 -200 -44 -80 -111 -203 -150 -275 -38 -71 -81 -150 -94
-175 -301 -545 -408 -752 -408 -785 0 -13 86 -129 210 -281 36 -44 81 -100
100 -124 72 -89 584 -716 638 -779 30 -36 76 -91 101 -121 25 -30 66 -76 91
-103 l45 -47 180 100 c99 54 187 104 195 110 8 5 22 13 30 17 8 4 51 28 95 54
44 26 96 56 115 67 210 120 386 224 396 234 7 7 26 38 42 68 16 30 63 118 104
195 120 223 147 274 201 375 27 52 53 100 57 105 16 22 169 323 193 380 50
118 60 91 -167 429 -111 165 -229 339 -261 386 -32 47 -121 177 -198 290 -77
113 -163 239 -192 280 -28 41 -118 172 -200 290 -249 361 -397 570 -403 570
-4 0 -12 -4 -18 -8z m47 -214 c57 -60 314 -423 694 -978 480 -701 636 -932
641 -944 6 -15 -126 -276 -264 -526 -13 -25 -38 -70 -54 -100 -195 -359 -262
-465 -338 -533 -45 -41 -234 -162 -370 -239 -25 -14 -94 -54 -155 -90 -125
-73 -294 -164 -329 -178 -37 -14 -86 40 -461 504 -44 55 -149 183 -234 285
-84 102 -190 231 -234 286 -45 55 -84 102 -87 105 -4 3 -26 31 -49 63 -36 48
-42 62 -37 88 5 26 184 396 205 424 5 6 39 69 76 140 37 72 109 207 160 300
51 94 109 202 130 240 20 39 63 117 95 175 31 58 74 137 95 175 21 39 50 93
65 120 15 28 87 160 160 295 122 225 202 360 233 395 17 20 33 18 58 -7z"/>
<path d="M6443 3099 c-7 -7 -13 -16 -13 -19 0 -4 -48 -94 -106 -201 -58 -107
-121 -221 -139 -254 -17 -33 -69 -129 -115 -213 -47 -87 -80 -159 -76 -167 7
-20 204 -309 280 -411 33 -45 75 -91 93 -104 32 -22 34 -22 53 -5 38 34 43
100 44 570 1 568 -5 820 -21 804z m-100 -456 c24 -40 25 -668 1 -693 -10 -9
-41 20 -92 86 -79 102 -131 200 -127 238 7 59 180 376 205 376 5 0 11 -3 13
-7z"/>
<path d="M1976 2848 c-18 -40 -55 -120 -81 -178 -48 -107 -77 -168 -160 -345
-26 -55 -58 -125 -72 -155 -14 -30 -66 -138 -114 -239 -49 -101 -89 -185 -89
-186 0 -2 -43 -90 -95 -197 l-96 -193 38 -33 c33 -29 125 -89 218 -142 17 -9
122 -71 235 -137 204 -120 312 -181 424 -242 l60 -32 18 23 c10 13 32 48 50
78 70 123 69 121 163 295 140 260 379 701 382 705 3 2 22 -5 43 -17 30 -18 40
-20 48 -10 18 22 21 64 6 86 -19 26 -36 27 -59 1 -25 -28 -36 -25 -69 18 -50
63 -377 463 -439 537 -33 39 -67 79 -76 90 -53 66 -208 252 -217 261 -6 7 -21
25 -35 41 -43 51 -46 50 -83 -29z m155 -215 c50 -52 140 -155 182 -208 9 -11
89 -107 178 -214 180 -216 239 -301 239 -341 0 -32 -26 -93 -76 -182 -20 -35
-48 -83 -61 -108 -14 -25 -33 -58 -43 -75 -9 -16 -39 -70 -65 -120 -27 -49
-56 -103 -65 -120 -9 -16 -45 -84 -81 -149 -35 -66 -79 -135 -96 -154 -50 -53
-73 -46 -349 113 -423 244 -474 278 -474 318 0 36 29 105 165 392 18 39 47
104 66 145 18 41 55 122 82 180 27 58 88 186 134 285 47 99 94 199 105 222 27
58 66 95 87 83 9 -4 41 -35 72 -67z"/>
<path d="M5900 2296 c-15 -29 -8 -95 12 -107 38 -24 67 81 32 115 -21 22 -28
20 -44 -8z"/>
<path d="M5906 2107 c-18 -32 -112 -204 -189 -347 -22 -41 -81 -147 -130 -235
-104 -186 -207 -379 -207 -389 0 -9 75 32 175 94 39 24 216 128 395 231 201
115 325 192 324 201 -1 8 -35 59 -76 114 -41 54 -110 151 -153 214 -81 120
-104 150 -114 150 -3 0 -14 -15 -25 -33z m105 -235 c17 -24 45 -69 63 -101 38
-67 36 -84 -21 -128 -45 -36 -166 -111 -198 -123 -12 -5 -47 -25 -78 -44 -58
-38 -97 -46 -97 -22 0 20 45 124 96 221 60 116 83 156 151 264 l16 24 19 -24
c10 -13 32 -43 49 -67z"/>
<path d="M2905 1735 c-39 -61 -176 -305 -265 -470 -74 -139 -193 -354 -251
-453 -27 -45 -49 -88 -49 -95 0 -7 33 -33 73 -57 109 -65 861 -497 947 -543
41 -22 81 -44 88 -50 37 -29 160 29 559 263 l93 54 -17 25 c-19 30 -115 149
-303 376 -72 88 -220 268 -327 400 -107 132 -205 251 -217 265 -11 14 -37 45
-56 70 -19 25 -37 47 -40 50 -3 3 -40 46 -82 95 -41 50 -85 98 -96 109 -21 18
-21 18 -57 -39z m120 -188 c27 -30 132 -152 232 -273 99 -120 276 -334 393
-474 189 -229 290 -360 290 -379 -1 -22 -92 -79 -316 -197 l-127 -67 -111 58
c-314 164 -840 484 -887 541 -10 12 1 41 65 168 155 310 370 676 395 676 9 0
38 -24 66 -53z"/>
</g>
</svg>
